# xmcd CD database file
#
# Track frame offsets:
#	150
#	19838
#	22850
#	53265
#	95965
#	130611
#	156062
#	197604
#	242796
#
# Disc length: 3984 seconds
#
# Revision: 0
# Processed by: cddbd v1.5.1PL2 Copyright (c) Steve Scherf et al.
# Submitted via: CDex 1.51
#
DISCID=650f8e09
DTITLE=Ingrid Jensen - At Sea
DYEAR=2005
DGENRE=Jazz
TTITLE0=At Sea
TTITLE1=Storm
TTITLE2=Captain Jon
TTITLE3=As Love Does
TTITLE4=Tea and Watercolors
TTITLE5=There is No Greater Love
TTITLE6=Everything I Love
TTITLE7=Swotterings
TTITLE8=KD Lang
EXTD=YEAR: 2005
EXTT0=
EXTT1=
EXTT2=
EXTT3=
EXTT4=
EXTT5=
EXTT6=
EXTT7=
EXTT8=
PLAYORDER=
